
<svg xmlns="http://www.w3.org/2000/svg" xmlns:xlink="http://www.w3.org/1999/xlink" width="500" zoomAndPan="magnify" viewBox="0 0 375 374.999991" height="500" preserveAspectRatio="xMidYMid meet" version="1.0"><defs><g/><clipPath id="2c611b9427"><path d="M 187.5 0 L 375 0 L 375 375 L 187.5 375 Z M 187.5 0 " clip-rule="nonzero"/></clipPath><clipPath id="9344475d1c"><path d="M 0.5 0 L 188 0 L 188 375 L 0.5 375 Z M 0.5 0 " clip-rule="nonzero"/></clipPath><clipPath id="7e040b93ce"><rect x="0" width="188" y="0" height="375"/></clipPath><clipPath id="b938281ac1"><path d="M 0 0 L 187.5 0 L 187.5 375 L 0 375 Z M 0 0 " clip-rule="nonzero"/></clipPath><clipPath id="3083b28765"><path d="M 0 0 L 187.5 0 L 187.5 375 L 0 375 Z M 0 0 " clip-rule="nonzero"/></clipPath><clipPath id="1f48e44898"><rect x="0" width="188" y="0" height="375"/></clipPath></defs><g clip-path="url(#2c611b9427)"><g transform="matrix(1, 0, 0, 1, 187, 0)"><g clip-path="url(#7e040b93ce)"><g clip-path="url(#9344475d1c)"><path fill="#ffffff" d="M 0.5 0 L 188 0 L 188 375 L 0.5 375 Z M 0.5 0 " fill-opacity="1" fill-rule="nonzero"/></g></g></g></g><g fill="#000000" fill-opacity="1"><g transform="translate(195.10546, 263.249983)"><g><path d="M 158.125 0 L 115.640625 0 L 115.640625 -67.265625 L 56.640625 -67.265625 L 56.640625 0 L 14.15625 0 L 14.15625 -165.203125 L 56.640625 -165.203125 L 56.640625 -100.296875 L 115.640625 -100.296875 L 115.640625 -165.203125 L 158.125 -165.203125 Z M 158.125 0 "/></g></g></g><g clip-path="url(#b938281ac1)"><g transform="matrix(1, 0, 0, 1, 0, 0)"><g clip-path="url(#1f48e44898)"><g clip-path="url(#3083b28765)"><path fill="#000000" d="M 0 0 L 187.5 0 L 187.5 375 L 0 375 Z M 0 0 " fill-opacity="1" fill-rule="nonzero"/></g></g></g></g><g fill="#ffffff" fill-opacity="1"><g transform="translate(12.093754, 261.749983)"><g><path d="M 42.546875 0 L -2.296875 0 L 58.65625 -161 L 104.65625 -161 L 165.59375 0 L 120.75 0 L 110.40625 -28.75 L 52.90625 -28.75 Z M 63.25 -58.65625 L 100.046875 -58.65625 L 81.65625 -112.703125 Z M 63.25 -58.65625 "/></g></g></g></svg>